<svg xmlns="http://www.w3.org/2000/svg" width="16" height="16" viewBox="0 0 16 16" fill="none">
  <path d="M12.7881 8.21844H9.49085V5.04553C9.49085 5.00684 9.48582 4.96941 9.47723 4.93337C9.88154 4.54484 10.134 3.99934 10.134 3.39563C10.134 2.91322 9.83723 2.23697 9.22682 1.32825C8.80595 0.701688 8.39095 0.197187 8.37351 0.176031C8.2816 0.0645625 8.14473 0 8.00023 0C7.85573 0 7.71885 0.0645625 7.62695 0.176C7.60951 0.197156 7.19454 0.701687 6.77363 1.32822C6.16323 2.23694 5.86648 2.91319 5.86648 3.39559C5.86648 3.99928 6.11888 4.54478 6.52323 4.93334C6.51463 4.96941 6.5096 5.00681 6.5096 5.0455V8.21844H3.21241C2.2127 8.21844 1.39941 9.03172 1.39941 10.0314V15.5161C1.39941 15.7833 1.61607 16 1.88329 16H14.1172C14.3844 16 14.6011 15.7833 14.6011 15.5161V11.5643V10.0314C14.6011 9.03178 13.7878 8.21844 12.7881 8.21844ZM8.00023 1.26972C8.56038 2.02184 9.16623 2.98791 9.16623 3.39563C9.16623 4.03859 8.64316 4.56166 8.00023 4.56166C7.35729 4.56166 6.83423 4.03859 6.83423 3.39563C6.83423 2.98791 7.4401 2.02181 8.00023 1.26972ZM8.5231 5.52938V8.21844H7.47735V5.52938H8.5231ZM2.3672 10.0314C2.36713 9.56538 2.74632 9.18619 3.21238 9.18619H6.99348H9.00695H12.788C13.2541 9.18619 13.6333 9.56538 13.6333 10.0314V11.3258C13.26 11.584 12.814 11.7245 12.3568 11.7245C11.6468 11.7245 10.9936 11.3989 10.5648 10.8312C10.4733 10.7101 10.3304 10.6389 10.1787 10.6389C10.0269 10.6389 9.88401 10.7101 9.79257 10.8312C9.36373 11.3989 8.71041 11.7245 8.0002 11.7245C7.29019 11.7245 6.63704 11.3989 6.2082 10.8312C6.11676 10.7101 5.97382 10.6389 5.8221 10.6389C5.67038 10.6389 5.52745 10.7101 5.43601 10.8312C5.00713 11.3989 4.35385 11.7245 3.64363 11.7245C3.18588 11.7245 2.74023 11.584 2.36723 11.3258V10.0314H2.3672ZM2.36713 15.0323V12.4277C2.7671 12.6008 3.20148 12.6923 3.64354 12.6923C4.46529 12.6923 5.23366 12.3878 5.82201 11.8421C6.41029 12.3878 7.1786 12.6923 8.00013 12.6923C8.82191 12.6923 9.59029 12.3878 10.1787 11.8421C10.7669 12.3878 11.5353 12.6923 12.3568 12.6923C12.7984 12.6923 13.2328 12.6008 13.6333 12.4273V15.0323H2.36713Z" fill="white"/>
</svg>
