<svg width="12" height="12" viewBox="0 0 12 12" fill="none" xmlns="http://www.w3.org/2000/svg">
<g id="Frame 5992">
<path id="path248" fill-rule="evenodd" clip-rule="evenodd" d="M1.71387 4.3459C1.71387 1.94923 3.66346 0 6.05992 0C8.45637 0 10.406 1.94923 10.406 4.3459C10.406 7.32007 6.51684 11.6858 6.35094 11.8702C6.19591 12.0429 5.92443 12.0436 5.7686 11.8702C5.60329 11.6858 1.71387 7.32007 1.71387 4.3459ZM3.87274 4.34546C3.87274 5.55114 4.85375 6.532 6.05944 6.532C7.26541 6.532 8.24613 5.55114 8.24613 4.34546C8.24613 3.13977 7.26541 2.15891 6.05944 2.15891C4.85375 2.15891 3.87274 3.13977 3.87274 4.34546Z" fill="#A6A6A6"/>
</g>
</svg>
