<svg width="12" height="12" viewBox="0 0 12 12" fill="none" xmlns="http://www.w3.org/2000/svg">
<g id="calendar 1" clip-path="url(#clip0_459_134)">
<g id="Calendar">
<path id="Vector" d="M9.5 3.25C9.69891 3.25 9.88968 3.17098 10.0303 3.03033C10.171 2.88968 10.25 2.69891 10.25 2.5V0.75C10.25 0.551087 10.171 0.360322 10.0303 0.21967C9.88968 0.0790174 9.69891 -2.38419e-07 9.5 -2.38419e-07C9.30109 -2.38419e-07 9.11032 0.0790174 8.96967 0.21967C8.82902 0.360322 8.75 0.551087 8.75 0.75V2.5C8.75 2.69891 8.82902 2.88968 8.96967 3.03033C9.11032 3.17098 9.30109 3.25 9.5 3.25Z" fill="#A6A6A6"/>
<path id="Vector_2" d="M2.5 3.25C2.69891 3.25 2.88968 3.17098 3.03033 3.03033C3.17098 2.88968 3.25 2.69891 3.25 2.5V0.75C3.25 0.551087 3.17098 0.360322 3.03033 0.21967C2.88968 0.0790174 2.69891 -2.38419e-07 2.5 -2.38419e-07C2.30109 -2.38419e-07 2.11032 0.0790174 1.96967 0.21967C1.82902 0.360322 1.75 0.551087 1.75 0.75V2.5C1.75 2.69891 1.82902 2.88968 1.96967 3.03033C2.11032 3.17098 2.30109 3.25 2.5 3.25Z" fill="#A6A6A6"/>
<path id="Vector_3" d="M0 11.75C0 11.8163 0.0263392 11.8799 0.0732233 11.9268C0.120107 11.9737 0.183696 12 0.25 12H11.75C11.8163 12 11.8799 11.9737 11.9268 11.9268C11.9737 11.8799 12 11.8163 12 11.75V5.085H0V11.75ZM3.4775 7.6125C3.49199 7.56807 3.51864 7.52859 3.55444 7.49854C3.59023 7.46849 3.63373 7.44908 3.68 7.4425L5.155 7.2275L5.815 5.89C5.83562 5.84792 5.86764 5.81249 5.90742 5.78774C5.94721 5.76298 5.99314 5.74991 6.04 5.75C6.08685 5.74991 6.13279 5.76298 6.17258 5.78774C6.21236 5.81249 6.24438 5.84792 6.265 5.89L6.925 7.2275L8.4025 7.44C8.44877 7.44658 8.49227 7.46599 8.52806 7.49604C8.56386 7.52609 8.59051 7.56557 8.605 7.61C8.61795 7.65364 8.61874 7.69999 8.60729 7.74405C8.59584 7.7881 8.57257 7.8282 8.54 7.86L7.4725 8.9025L7.7225 10.3725C7.73169 10.4191 7.7274 10.4674 7.71013 10.5117C7.69287 10.556 7.66333 10.5944 7.625 10.6225C7.58718 10.6504 7.54225 10.6671 7.49538 10.6706C7.4485 10.6742 7.40158 10.6644 7.36 10.6425L6.0425 9.95L4.7225 10.645C4.68092 10.6669 4.634 10.6767 4.58712 10.6731C4.54025 10.6696 4.49532 10.6529 4.4575 10.625C4.41871 10.5972 4.38869 10.5589 4.37097 10.5146C4.35325 10.4703 4.34858 10.4219 4.3575 10.375L4.6075 8.9025L3.5375 7.8625C3.5058 7.83017 3.48347 7.78983 3.4729 7.7458C3.46233 7.70177 3.46392 7.6557 3.4775 7.6125Z" fill="#A6A6A6"/>
<path id="Vector_4" d="M11.75 1.75H10.75V2.5C10.75 2.83152 10.6183 3.14946 10.3839 3.38388C10.1495 3.6183 9.83152 3.75 9.5 3.75C9.16848 3.75 8.85054 3.6183 8.61612 3.38388C8.3817 3.14946 8.25 2.83152 8.25 2.5V1.75H3.75V2.5C3.75 2.83152 3.6183 3.14946 3.38388 3.38388C3.14946 3.6183 2.83152 3.75 2.5 3.75C2.16848 3.75 1.85054 3.6183 1.61612 3.38388C1.3817 3.14946 1.25 2.83152 1.25 2.5V1.75H0.25C0.183696 1.75 0.120107 1.77634 0.0732233 1.82322C0.0263392 1.87011 0 1.9337 0 2L0 4.585H12V2C12 1.9337 11.9737 1.87011 11.9268 1.82322C11.8799 1.77634 11.8163 1.75 11.75 1.75Z" fill="#A6A6A6"/>
</g>
</g>
<defs>
<clipPath id="clip0_459_134">
<rect width="12" height="12" fill="white"/>
</clipPath>
</defs>
</svg>
