<svg width="12" height="12" viewBox="0 0 12 12" fill="none" xmlns="http://www.w3.org/2000/svg">
<g id="email 1">
<g id="Group">
<g id="Group_2">
<path id="Vector" d="M7.95459 6.0615L12.0001 8.619V3.396L7.95459 6.0615Z" fill="#A6A6A6"/>
</g>
</g>
<g id="Group_3">
<g id="Group_4">
<path id="Vector_2" d="M0 3.396V8.619L4.0455 6.0615L0 3.396Z" fill="#A6A6A6"/>
</g>
</g>
<g id="Group_5">
<g id="Group_6">
<path id="Vector_3" d="M11.25 1.875H0.749961C0.375711 1.875 0.0787109 2.154 0.0224609 2.51325L5.99996 6.4515L11.9775 2.51325C11.9212 2.154 11.6242 1.875 11.25 1.875Z" fill="#A6A6A6"/>
</g>
</g>
<g id="Group_7">
<g id="Group_8">
<path id="Vector_4" d="M7.26743 6.5145L6.20618 7.2135C6.14318 7.25475 6.07193 7.275 5.99993 7.275C5.92793 7.275 5.85668 7.25475 5.79368 7.2135L4.73243 6.51375L0.0239258 9.492C0.0816758 9.84825 0.377176 10.125 0.749926 10.125H11.2499C11.6227 10.125 11.9182 9.84825 11.9759 9.492L7.26743 6.5145Z" fill="#A6A6A6"/>
</g>
</g>
</g>
</svg>
