<svg width="12" height="12" viewBox="0 0 12 12" fill="none" xmlns="http://www.w3.org/2000/svg">
<g id="Frame 5993">
<path id="path246" fill-rule="evenodd" clip-rule="evenodd" d="M11.6767 9.05088L9.225 7.6013H9.21236C9.12738 7.5506 9.01316 7.52562 8.86929 7.52562C8.66582 7.52562 8.4882 7.59322 8.33572 7.72914L7.61165 8.46605C7.59465 8.48295 7.56714 8.49838 7.5292 8.51013C7.49086 8.52336 7.46343 8.52924 7.44644 8.52924L7.28771 8.49838C7.18147 8.47634 7.02923 8.41536 6.83042 8.31397C6.63122 8.21184 6.38357 8.05314 6.08746 7.83714C5.79071 7.6204 5.45168 7.3177 5.0713 6.92757C4.68128 6.54626 4.38059 6.20976 4.16906 5.91734C3.95721 5.62493 3.8007 5.3766 3.69904 5.17382C3.58047 4.94532 3.50427 4.74108 3.47059 4.56401C3.47059 4.5383 3.47676 4.50597 3.48941 4.4685C3.50206 4.43029 3.51692 4.40237 3.53391 4.38548L4.15641 3.76244C4.26628 3.65224 4.33822 3.51705 4.37221 3.35541C4.4062 3.19525 4.38486 3.04684 4.30858 2.91092L2.94936 0.329883C2.89039 0.237309 2.81814 0.158696 2.73324 0.0955105C2.64858 0.0315914 2.55104 -9.53674e-07 2.4414 -9.53674e-07C2.2886 -9.53674e-07 2.15367 0.0595102 2.03478 0.177798L0.345457 1.86836C0.260481 1.94477 0.188548 2.04396 0.128947 2.16739C0.0699772 2.29009 0.0320345 2.41058 0.0147231 2.5296C0.0147231 2.5465 0.0106917 2.63099 0.00207553 2.78381C-0.00630349 2.93663 0.0106917 3.14602 0.052982 3.41272C0.0956676 3.68016 0.175901 3.99755 0.294156 4.36637C0.412727 4.7352 0.590583 5.14664 0.827725 5.59995C1.06518 6.05253 1.37861 6.54626 1.76799 7.08039C2.15738 7.61452 2.64858 8.17364 3.24144 8.75846C3.98685 9.51301 4.68998 10.1059 5.3501 10.5379C6.01094 10.9699 6.60158 11.2947 7.12219 11.5107C7.64342 11.7267 8.08372 11.8626 8.44378 11.9177C8.80352 11.9728 9.06414 12 9.225 12C9.29259 12 9.34784 11.9978 9.3899 11.9934C9.43219 11.989 9.4578 11.9875 9.46618 11.9875C9.58475 11.9706 9.70545 11.9324 9.82837 11.8729C9.9509 11.8134 10.0507 11.7414 10.1266 11.6569L11.8166 9.97882C11.9604 9.83481 12.0194 9.66509 11.9944 9.4704C11.9604 9.30068 11.8545 9.16108 11.6767 9.05088Z" fill="#A6A6A6"/>
</g>
</svg>
